<svg width="50" height="50" viewBox="0 0 50 50" xmlns="http://www.w3.org/2000/svg">
  <style>
    path {
      fill: #116906;
    }
    @media (prefers-color-scheme: dark) {
      path {
        fill: #76d337;
      }
    }
  </style>
<g clip-path="url(#clip0_423_5)">
<path d="M18.75 6.25C19.5788 6.25 20.3737 5.92076 20.9597 5.33471C21.5458 4.74866 21.875 3.9538 21.875 3.125C21.875 2.2962 21.5458 1.50134 20.9597 0.915291C20.3737 0.32924 19.5788 0 18.75 0C17.9212 0 17.1263 0.32924 16.5403 0.915291C15.9542 1.50134 15.625 2.2962 15.625 3.125C15.625 3.9538 15.9542 4.74866 16.5403 5.33471C17.1263 5.92076 17.9212 6.25 18.75 6.25ZM29.6875 12.5C30.9307 12.5 32.123 12.0061 33.0021 11.1271C33.8811 10.248 34.375 9.0557 34.375 7.8125C34.375 6.5693 33.8811 5.37701 33.0021 4.49794C32.123 3.61886 30.9307 3.125 29.6875 3.125C28.4443 3.125 27.252 3.61886 26.3729 4.49794C25.4939 5.37701 25 6.5693 25 7.8125C25 9.0557 25.4939 10.248 26.3729 11.1271C27.252 12.0061 28.4443 12.5 29.6875 12.5ZM6.55273 21.875C4.73633 25.0977 3.125 29.0137 3.125 32.6562C3.125 36.3086 4.28711 39.4336 6.25 41.9824V50H10.9375V46.1914C14.8828 48.6816 19.9023 50 25 50C30.0977 50 35.1172 48.6816 39.0625 46.1914V50H43.75V41.9824C45.7129 39.4336 46.875 36.3086 46.875 32.6562C46.875 29.0137 45.2637 25.0977 43.4473 21.875H46.875V15.625H39.0625H25H10.9375H3.125V21.875H6.55273Z"/>
</g>
<defs>
<clipPath id="clip0_423_5">
<rect width="43.75" height="50" fill="white" transform="translate(3.125)"/>
</clipPath>
</defs>
</svg>
